<?xml version="1.0" standalone="no"?>
<!DOCTYPE svg PUBLIC "-//W3C//DTD SVG 20010904//EN"
 "http://www.w3.org/TR/2001/REC-SVG-20010904/DTD/svg10.dtd">
<svg version="1.0" xmlns="http://www.w3.org/2000/svg"
 width="400.000000pt" height="400.000000pt" viewBox="0 0 400.000000 400.000000"
 preserveAspectRatio="xMidYMid meet">
<metadata>
Created by potrace 1.14, written by Peter Selinger 2001-2017
</metadata>
<g transform="translate(0.000000,400.000000) scale(0.100000,-0.100000)"
fill="#000000" stroke="none">
<path d="M1879 3726 c-2 -2 -26 -7 -54 -10 -294 -39 -600 -219 -781 -460 -250
-332 -316 -752 -178 -1137 62 -174 138 -293 297 -463 135 -144 165 -185 211
-291 43 -98 77 -157 109 -193 l21 -22 365 1 c539 0 511 1 511 -16 0 -13 -54
-15 -424 -15 -357 0 -425 -2 -436 -14 -15 -19 -27 -141 -28 -280 -1 -230 80
-391 243 -481 86 -48 150 -67 235 -70 240 -10 444 140 505 371 21 82 12 464
-14 561 l-7 28 -453 2 c-249 0 -456 5 -460 10 -4 4 -25 46 -46 93 -103 229
-102 226 -178 291 -92 79 -146 135 -213 223 -59 77 -137 219 -127 230 3 3 2 6
-4 6 -12 0 -58 149 -77 250 -14 73 -15 313 -2 370 3 14 8 39 12 55 17 89 112
323 125 310 3 -3 6 1 6 8 0 50 266 346 299 333 8 -3 12 -2 9 3 -8 14 73 67
178 116 148 70 308 106 472 108 70 0 209 -13 215 -21 3 -4 23 -8 45 -10 22 -2
45 -8 52 -14 7 -6 13 -8 13 -5 0 8 65 -15 141 -49 33 -15 56 -31 52 -37 -3 -5
-1 -7 5 -3 12 7 62 -13 62 -26 0 -4 5 -8 12 -8 33 0 318 -262 318 -292 0 -7 7
-20 17 -30 19 -22 28 -36 70 -120 56 -112 71 -154 110 -323 12 -54 11 -273 -2
-353 -15 -94 -50 -219 -67 -239 -6 -7 -8 -13 -4 -13 11 0 -81 -172 -109 -205
-79 -92 -161 -164 -259 -230 -128 -86 -175 -128 -212 -191 -57 -97 -61 -174
-9 -174 18 0 28 8 36 27 51 128 87 174 188 239 31 20 74 48 96 63 54 35 177
153 230 221 152 197 235 532 202 820 -50 429 -344 810 -753 973 -137 55 -257
79 -420 83 -78 2 -143 1 -145 0z m507 -2699 c4 -3 4 -12 1 -20 -4 -11 -45 -14
-219 -13 -242 2 -268 -2 -268 -45 0 -17 7 -32 18 -37 9 -5 90 -9 180 -8 89 0
162 -2 162 -5 0 -3 -24 -22 -54 -43 -30 -21 -56 -43 -59 -49 -9 -25 13 -56 67
-94 30 -21 57 -43 59 -48 5 -10 -647 -15 -656 -5 -2 3 -8 15 -11 28 l-7 22
160 0 c132 0 162 3 175 16 19 18 20 28 6 55 -10 18 -23 19 -186 19 l-176 0 4
47 3 48 49 1 c48 1 66 13 66 44 0 34 -18 43 -102 49 -5 1 -8 10 -8 20 0 13 8
21 23 23 41 6 767 1 773 -5z m12 -237 c0 -55 -4 -90 -11 -90 -12 0 -117 80
-117 89 1 4 119 90 126 91 1 0 2 -40 2 -90z m-68 -235 c0 -26 -102 -115 -166
-145 -172 -83 -382 -27 -494 130 l-19 26 340 0 c263 1 339 -2 339 -11z"/>
<path d="M2188 3293 c7 -3 16 -2 19 1 4 3 -2 6 -13 5 -11 0 -14 -3 -6 -6z"/>
<path d="M2125 3280 c-3 -5 -3 -10 2 -11 4 0 -5 -7 -22 -14 -25 -11 -31 -11
-43 4 -7 9 -10 10 -7 3 11 -21 -14 -62 -33 -55 -10 4 -13 2 -8 -5 3 -6 -3 -13
-14 -17 -11 -4 -18 -11 -15 -16 4 -5 -1 -12 -9 -15 -9 -3 -25 -20 -35 -38 -11
-18 -32 -38 -46 -46 -14 -7 -23 -15 -20 -18 2 -3 12 1 21 9 16 13 16 12 5 -8
-6 -12 -17 -21 -24 -19 -6 1 -9 1 -4 -1 14 -8 7 -25 -8 -19 -13 4 -14 2 -5
-14 8 -15 8 -20 -1 -20 -6 0 -9 -6 -6 -13 3 -8 -1 -14 -9 -14 -17 0 -17 2 -3
30 9 19 8 19 -11 -3 -19 -21 -21 -22 -16 -5 6 19 5 19 -8 2 -12 -16 -14 -16
-20 -2 -3 9 -11 13 -17 9 -8 -5 -9 -3 -4 6 6 10 4 12 -8 7 -9 -3 -19 -2 -22 4
-4 5 -10 7 -15 4 -4 -3 -13 2 -20 11 -7 8 -19 13 -27 10 -9 -4 -11 -1 -7 6 5
8 2 9 -10 5 -10 -4 -15 -3 -11 3 3 6 1 10 -4 10 -6 0 -11 -6 -11 -12 0 -9 -3
-10 -8 -2 -8 13 -42 14 -42 2 0 -5 -4 -7 -9 -4 -5 3 -14 -1 -21 -9 -7 -8 -19
-15 -27 -15 -8 0 -12 -4 -8 -10 8 -13 -17 -50 -35 -50 -13 0 -13 -2 -1 -9 13
-8 13 -12 0 -27 -11 -14 -11 -16 0 -9 11 6 13 1 9 -23 -2 -17 -1 -29 3 -26 4
2 10 0 14 -6 3 -5 1 -10 -6 -10 -6 0 -1 -8 11 -18 23 -19 20 -49 -3 -36 -7 4
-8 3 -4 -1 10 -12 38 -15 31 -4 -3 5 0 9 5 9 6 0 11 -7 11 -15 0 -8 6 -15 13
-15 20 0 51 -37 37 -43 -6 -3 -5 -4 2 -2 7 1 12 8 10 15 -2 8 3 10 13 6 9 -3
13 -2 10 4 -3 6 0 10 7 10 7 0 2 6 -12 13 -13 7 -30 22 -36 35 -6 12 -13 20
-15 17 -3 -2 -13 10 -23 27 -11 17 -14 28 -9 25 6 -4 10 1 9 10 0 10 4 18 11
18 6 0 14 3 18 7 12 11 -22 3 -37 -9 -11 -10 -14 -7 -13 16 0 16 6 35 13 43 6
8 8 19 4 23 -4 5 -1 5 6 1 11 -6 10 -12 -5 -29 -14 -18 -12 -17 10 2 27 24 36
38 17 26 -5 -3 -10 -2 -10 3 0 17 51 21 57 5 5 -12 7 -12 14 -1 7 11 9 11 9
-1 0 -7 6 -11 15 -8 8 4 17 2 20 -4 4 -5 11 -7 16 -4 8 6 13 -9 10 -28 -1 -5
3 -6 9 -2 6 3 8 12 4 18 -3 7 3 2 14 -10 21 -24 38 -31 26 -11 -4 7 -3 8 5 4
7 -5 9 -16 5 -29 -6 -20 -6 -20 11 -4 13 14 20 15 31 6 15 -12 9 -33 -7 -23
-5 3 -6 10 -3 16 5 7 2 8 -5 4 -9 -6 -8 -13 5 -27 16 -18 16 -19 -2 -20 -11 0
-13 -3 -6 -6 6 -2 12 -9 12 -15 0 -6 -7 -8 -15 -4 -13 5 -14 2 -4 -15 6 -12 7
-19 1 -15 -5 3 -12 -1 -15 -9 -4 -10 -1 -12 11 -9 15 5 14 4 -1 -6 -11 -7 -16
-18 -12 -30 3 -10 0 -22 -6 -26 -8 -5 -9 -3 -4 6 5 9 4 11 -4 6 -9 -6 -9 -11
-1 -21 8 -9 8 -15 0 -20 -6 -3 -8 -10 -5 -15 3 -5 1 -11 -5 -15 -6 -4 -7 -12
-3 -18 3 -7 -3 -4 -14 6 -16 14 -23 15 -29 6 -4 -7 -3 -10 4 -5 6 3 15 -1 20
-10 11 -19 4 -54 -10 -54 -5 0 -6 5 -2 12 4 6 3 8 -3 5 -5 -3 -8 -20 -7 -37 2
-25 -1 -30 -13 -25 -13 5 -14 3 -3 -10 12 -14 10 -15 -13 -11 -15 2 -29 1 -32
-3 -2 -5 5 -8 17 -7 12 0 23 -5 26 -13 3 -8 0 -11 -7 -7 -6 4 -11 2 -11 -4 0
-6 -4 -9 -9 -6 -5 3 -7 -8 -6 -24 2 -28 -4 -34 -30 -31 -5 1 -3 -4 6 -11 12
-10 13 -16 5 -25 -27 -29 -34 -41 -29 -47 4 -3 1 -6 -5 -6 -16 0 -15 13 1 29
10 11 8 11 -13 1 -23 -12 -24 -12 -11 4 8 9 10 16 5 15 -5 -1 -16 -1 -23 0
-12 1 -12 4 -3 13 15 15 15 28 1 28 -5 0 -7 -5 -3 -12 4 -7 3 -8 -4 -4 -12 7
-5 36 9 36 5 0 9 5 9 11 0 5 -6 7 -12 3 -10 -5 -10 -4 -1 6 6 7 9 19 6 26 -3
8 0 14 7 14 6 0 9 -4 5 -9 -3 -5 -1 -12 4 -15 5 -4 8 1 7 10 -1 8 -9 20 -17
25 -10 6 -10 9 -1 9 6 0 12 5 12 11 0 5 -4 8 -8 5 -4 -2 -9 3 -10 12 -5 47
-10 63 -26 81 -16 18 -16 20 0 29 11 6 13 11 5 16 -6 4 -11 2 -11 -3 0 -6 -5
-11 -11 -11 -5 0 -7 5 -4 10 3 6 1 10 -5 10 -6 0 -8 4 -5 10 3 6 -1 7 -10 4
-11 -5 -18 0 -22 15 -3 11 -10 21 -15 21 -5 0 -6 -5 -2 -11 4 -8 0 -7 -15 1
-12 6 -19 15 -16 20 4 6 -5 6 -20 0 -15 -6 -31 -7 -36 -4 -6 3 -17 0 -26 -8
-12 -9 -15 -9 -9 -1 5 9 2 11 -8 7 -9 -3 -13 -11 -9 -17 4 -6 0 -8 -10 -4 -10
3 -17 2 -17 -4 0 -15 -36 -60 -43 -53 -6 6 -43 -87 -39 -100 2 -5 -5 -6 -15
-2 -17 6 -17 5 -1 -7 15 -12 15 -14 0 -25 -9 -7 -11 -10 -4 -7 6 3 12 1 12 -4
0 -6 -4 -11 -9 -11 -5 0 -12 -7 -15 -16 -6 -15 -4 -15 10 -3 15 12 16 12 10
-8 -4 -12 -3 -24 3 -27 5 -3 8 -18 6 -34 -2 -15 4 -35 12 -44 14 -15 14 -20 2
-35 -8 -9 -9 -14 -3 -10 13 8 57 -49 49 -63 -4 -6 -2 -9 3 -8 5 2 21 -10 36
-25 14 -15 31 -25 36 -22 6 3 10 0 10 -8 0 -8 7 -18 16 -21 8 -3 13 -2 10 2
-3 5 9 6 26 4 21 -3 26 -7 17 -13 -10 -6 -10 -9 -2 -9 6 0 14 4 18 9 3 5 17 8
31 5 14 -3 23 -1 20 4 -2 4 5 9 16 9 12 1 25 8 29 15 8 12 13 3 10 -16 -1 -5
5 -4 13 4 18 14 22 25 6 15 -5 -3 -10 -2 -10 3 0 5 11 12 25 15 14 2 24 2 21
0 -2 -2 2 -16 9 -30 10 -18 11 -32 4 -44 -7 -14 -6 -17 4 -13 10 4 13 -6 12
-43 -2 -26 1 -50 4 -53 10 -7 76 -144 73 -149 -2 -2 1 -7 6 -10 14 -9 171
-328 165 -335 -4 -3 -2 -6 4 -6 10 0 33 -42 33 -60 0 -5 -17 -7 -37 -5 -79 7
-104 -29 -102 -148 l2 -67 43 0 c47 0 46 -2 46 72 0 21 5 41 11 45 20 12 236
10 241 -2 2 -7 3 -35 3 -63 l-2 -52 46 0 47 0 0 85 c1 108 -10 125 -88 129
-30 2 -54 7 -53 12 5 27 131 263 137 257 4 -4 4 1 0 11 -6 15 -4 17 6 11 8 -5
11 -4 7 3 -7 10 30 91 46 103 5 3 8 9 7 13 -1 4 17 43 40 88 29 56 40 89 37
107 -7 33 2 81 15 81 5 0 6 -6 2 -12 -4 -7 -3 -9 2 -5 4 4 9 18 9 30 0 14 5
21 15 19 12 -3 12 -1 3 9 -9 9 -7 16 10 31 12 11 16 17 10 13 -7 -3 -13 -1
-13 4 0 10 7 13 28 10 4 -1 6 -5 4 -11 -1 -5 2 -7 7 -4 11 7 9 32 -4 43 -4 4
-5 2 0 -6 6 -10 4 -12 -4 -7 -9 6 -9 12 3 25 9 10 13 20 10 24 -4 3 6 4 22 1
21 -3 25 -2 14 5 -8 6 -11 13 -7 17 3 4 13 2 20 -5 11 -9 17 -7 28 6 13 17 13
17 -6 3 -19 -14 -19 -14 -6 3 15 18 15 18 29 0 12 -14 13 -15 9 -2 -8 25 21
61 43 54 10 -3 21 -1 25 4 3 6 0 8 -8 5 -8 -3 -18 -1 -22 5 -3 6 -2 11 2 11 5
0 18 7 29 16 17 14 17 15 1 10 -27 -9 -16 16 14 31 l24 13 -23 0 c-13 0 -20 4
-17 10 11 18 -14 48 -40 48 -14 0 -25 -5 -25 -11 0 -5 -9 2 -21 17 -11 14 -25
24 -30 21 -5 -3 -17 -1 -27 4 -14 7 -19 6 -19 -4 0 -8 7 -11 16 -7 14 5 14 3
2 -11 -7 -9 -17 -15 -21 -12 -5 3 -12 0 -16 -6 -4 -7 -3 -9 4 -5 6 4 10 -1 9
-13 -1 -15 -4 -17 -14 -9 -11 9 -12 6 -4 -16 9 -21 8 -26 -4 -26 -8 0 -15 -5
-15 -11 0 -5 4 -8 8 -5 7 4 8 -15 3 -68 -1 -5 -11 -1 -23 10 -13 10 -18 12
-12 4 14 -19 14 -51 0 -42 -21 13 -35 10 -41 -7 -5 -18 -35 -25 -35 -9 0 4 4
8 8 8 10 0 10 46 0 55 -4 4 -5 -1 -4 -12 5 -26 -12 -53 -31 -53 -14 0 -14 2 3
15 18 14 17 15 -8 6 -39 -15 -44 12 -7 43 16 14 29 28 29 31 -1 25 2 36 16 49
8 9 19 14 23 12 4 -3 8 5 8 16 2 20 1 20 -12 2 -7 -11 -17 -16 -21 -11 -4 4
-2 13 4 19 15 15 15 28 1 28 -5 0 -7 -6 -3 -12 5 -9 2 -8 -9 1 -13 11 -15 17
-6 28 10 11 8 12 -6 7 -13 -5 -16 -4 -11 4 4 7 2 12 -3 12 -6 0 -11 -4 -11
-10 0 -5 -5 -10 -11 -10 -5 0 -8 4 -5 8 3 5 -1 9 -9 9 -8 0 -12 -4 -9 -9 3 -4
0 -16 -6 -25 -11 -17 -11 -17 -6 0 4 11 2 16 -5 11 -6 -3 -9 -15 -6 -25 3 -12
1 -17 -6 -12 -6 4 -8 0 -4 -10 8 -21 -11 -33 -26 -18 -9 9 -8 11 7 5 17 -7 17
-5 2 23 -8 17 -12 34 -8 38 4 5 1 5 -5 1 -7 -4 -13 -13 -13 -21 0 -8 -5 -17
-12 -21 -7 -5 -8 -2 -3 7 7 12 5 12 -6 1 -12 -11 -12 -14 1 -22 14 -9 7 -14
-13 -11 -4 1 -3 -7 3 -18 7 -15 6 -23 -5 -35 -8 -8 -13 -20 -12 -28 2 -7 2
-10 0 -5 -3 4 -9 4 -15 1 -7 -4 -7 0 -1 12 17 34 8 72 -21 99 -19 17 -27 21
-22 10 4 -13 2 -16 -9 -11 -8 3 -15 1 -15 -4 0 -6 6 -10 13 -10 8 0 7 -4 -3
-10 -8 -5 -11 -10 -6 -10 5 0 2 -8 -7 -18 -10 -10 -14 -23 -10 -27 5 -5 0 -3
-10 4 -10 8 -14 18 -9 25 4 6 7 21 6 33 0 12 2 20 6 18 5 -3 6 4 3 16 -4 16
-8 17 -14 7 -7 -10 -9 -10 -9 0 0 6 -5 12 -11 12 -5 0 -7 -5 -3 -11 4 -7 -1
-7 -16 1 -17 9 -21 9 -15 0 4 -6 -3 -22 -15 -35 -19 -20 -25 -22 -41 -12 -11
7 -19 16 -19 21 0 4 6 4 13 -2 11 -9 57 1 57 12 0 3 -11 1 -25 -4 -23 -9 -28
-6 -27 11 0 3 -10 5 -23 5 -13 0 -21 -4 -19 -8 3 -5 10 -5 16 -2 6 4 9 3 5 -2
-8 -14 -70 -9 -75 5 -3 9 3 11 19 7 16 -5 13 -1 -10 12 -22 12 -30 22 -22 26
6 4 9 11 6 16 -3 5 -1 11 5 15 6 4 7 12 3 18 -3 7 3 4 14 -6 16 -14 20 -14 20
-2 0 8 -4 12 -8 10 -4 -3 -10 2 -13 11 -4 11 -2 15 8 11 8 -3 20 2 28 11 12
15 11 16 -4 4 -11 -9 -18 -10 -23 -2 -3 5 -1 10 4 10 6 0 11 5 11 11 0 5 -4 7
-10 4 -6 -3 -7 1 -4 9 3 9 10 16 16 16 5 0 7 -4 3 -9 -3 -5 -2 -12 3 -15 12
-7 11 28 -1 35 -5 4 0 10 12 14 21 6 21 7 4 20 -10 7 -14 17 -10 21 4 5 12 3
16 -4 5 -8 8 2 9 24 2 43 9 54 23 34 8 -11 9 -9 4 9 -6 18 -4 22 6 15 8 -5 25
-10 39 -11 14 -2 31 -4 38 -5 6 -1 12 -4 12 -8 0 -3 11 -6 24 -6 17 0 22 4 18
15 -3 9 -1 12 6 7 7 -4 18 -4 25 1 6 4 20 9 30 10 10 2 29 10 43 19 19 13 24
13 21 3 -2 -8 -2 -11 0 -6 3 4 8 5 13 2 4 -3 6 4 3 15 -6 21 11 28 23 8 5 -7
3 -8 -6 -3 -9 5 -11 4 -6 -3 12 -19 28 -14 21 7 -4 13 5 29 31 55 20 20 41 36
48 36 7 0 6 4 -3 9 -10 6 -10 10 -1 16 6 4 21 -1 33 -12 22 -18 22 -18 4 3 -9
11 -14 24 -10 29 5 4 1 5 -7 0 -12 -6 -13 -5 -2 6 6 7 12 21 12 32 0 12 4 16
13 11 7 -5 6 0 -3 11 -8 10 -10 16 -3 12 6 -4 15 -2 19 4 4 8 3 9 -5 5 -6 -4
-14 0 -18 10 -4 10 -2 19 5 22 6 2 -2 17 -19 35 -16 17 -28 36 -26 41 5 12
-32 18 -100 19 -23 0 -40 4 -37 9 3 4 3 8 0 8 -3 0 -8 -4 -11 -10z m111 -72
c-4 6 -5 12 -2 12 3 0 13 -14 22 -31 13 -26 14 -33 2 -40 -10 -7 -10 -9 0 -9
7 0 10 -4 7 -10 -3 -5 -8 -20 -10 -32 -3 -13 -11 -28 -20 -34 -8 -6 -12 -14
-8 -17 12 -13 -13 -7 -27 6 -8 6 -6 1 5 -12 l20 -24 -22 5 c-25 7 -40 -6 -22
-18 8 -5 9 -3 4 6 -5 9 -4 11 4 6 16 -11 3 -26 -16 -19 -10 4 -14 2 -10 -4 4
-6 -1 -17 -10 -24 -12 -10 -14 -10 -9 -1 4 6 3 12 -3 12 -5 0 -13 -9 -16 -21
-5 -16 -10 -18 -21 -8 -11 9 -15 8 -20 -5 -8 -21 -25 -10 -17 12 7 18 5 17
-17 -12 -12 -16 -12 -18 -1 -11 9 5 12 4 7 -3 -4 -6 -14 -8 -23 -5 -12 5 -14
3 -8 -8 8 -12 6 -12 -8 0 -9 7 -15 17 -12 21 3 4 -3 14 -13 21 -15 12 -16 12
-5 -2 10 -12 10 -18 0 -29 -10 -10 -9 -11 2 -5 9 5 12 4 7 -3 -5 -8 -15 -8
-34 -1 -15 6 -28 10 -29 10 -33 -9 -36 27 -5 56 16 16 20 24 10 20 -13 -5 -11
3 10 32 15 21 31 37 35 34 5 -3 7 1 6 8 -3 21 12 50 22 43 5 -3 12 2 15 11 4
9 13 14 20 11 8 -3 11 0 8 8 -5 14 22 30 36 21 5 -3 12 0 16 6 4 8 3 9 -4 5
-7 -4 -12 -3 -12 2 0 17 13 22 27 10 11 -9 12 -7 7 8 -4 10 -4 16 1 12 4 -4
16 -3 26 3 14 7 19 6 19 -3 0 -7 5 -5 11 5 10 18 12 18 37 -5 14 -12 22 -17
18 -10z m-806 -528 c0 -6 3 -9 8 -9 25 4 34 -2 23 -15 -10 -12 -9 -14 7 -10
16 5 38 -22 48 -58 1 -5 2 -9 4 -10 7 -10 7 -37 -1 -32 -5 3 -9 0 -9 -5 0 -6
5 -11 10 -11 6 0 10 -5 10 -11 0 -5 -6 -7 -12 -3 -10 5 -10 4 -1 -6 6 -7 9
-19 6 -27 -5 -12 -9 -10 -20 8 l-14 24 7 -25 c6 -23 6 -23 -10 -7 -10 9 -22
15 -27 12 -5 -4 -9 1 -9 10 0 10 5 13 12 9 7 -4 8 -3 4 5 -6 8 -12 9 -20 2 -7
-6 -17 -7 -21 -3 -5 4 -5 1 -1 -5 4 -8 1 -13 -8 -14 -9 -1 -22 -2 -28 -3 -7 0
-13 -7 -13 -14 0 -7 -7 -17 -15 -23 -13 -9 -12 -10 3 -5 13 4 17 0 17 -17 0
-12 9 -29 19 -37 11 -7 18 -17 15 -22 -3 -4 2 -5 11 -2 9 4 15 3 13 -2 -2 -5
2 -9 7 -9 5 0 9 3 8 7 -2 5 7 6 20 4 12 -1 28 4 35 13 11 15 12 15 6 0 -3 -10
0 -20 7 -25 8 -5 10 -3 4 7 -5 8 1 6 12 -4 13 -11 19 -26 16 -38 -3 -10 0 -19
6 -19 6 0 -3 -16 -20 -35 -17 -19 -34 -34 -38 -33 -3 0 -8 -1 -11 -2 -22 -8
-39 -7 -33 3 4 7 -1 6 -10 -2 -15 -12 -17 -11 -17 2 0 24 -17 29 -35 11 -13
-14 -19 -14 -28 -4 -9 10 -9 11 1 6 6 -4 12 -2 12 4 0 6 -9 10 -19 8 -25 -4
-61 29 -54 50 5 11 3 13 -7 7 -10 -6 -12 -2 -8 19 4 21 3 24 -8 15 -11 -9 -14
-8 -16 2 0 8 -2 19 -2 24 -1 6 -5 16 -10 24 -6 9 -5 12 0 8 6 -3 11 3 11 14 1
12 -5 19 -15 19 -15 1 -14 3 3 17 13 10 15 14 4 10 -12 -4 -16 2 -15 29 1 19
5 34 9 34 5 0 7 10 5 23 -2 15 2 21 11 19 11 -2 12 0 3 10 -9 11 -6 20 13 40
13 14 21 29 17 32 -3 4 2 4 12 0 12 -5 17 -4 13 3 -10 15 36 33 56 22 13 -8
15 -6 10 7 -5 14 -3 15 15 5 12 -7 22 -16 22 -21z m340 -165 c0 -12 -19 -12
-23 0 -4 9 -1 12 9 8 7 -3 14 -7 14 -8z m-20 -33 c0 -4 -6 -14 -12 -21 -11
-11 -10 -13 3 -8 9 3 16 0 16 -9 0 -7 -4 -11 -9 -8 -4 3 -8 1 -8 -5 0 -6 -8
-8 -17 -5 -13 4 -15 3 -5 -4 7 -5 13 -28 14 -50 0 -23 7 -47 14 -53 8 -6 12
-15 9 -19 -3 -4 3 -14 13 -21 15 -13 16 -12 3 4 -7 9 -10 17 -6 17 4 0 1 8 -6
17 -12 15 -12 16 3 11 11 -5 15 -2 14 10 -2 9 4 23 13 30 9 8 10 11 4 7 -7 -3
-13 -1 -13 4 0 6 5 11 11 11 6 0 8 7 5 16 -5 14 -4 15 8 5 11 -9 16 -9 22 0 4
7 3 9 -3 6 -6 -4 -14 0 -17 9 -5 12 -2 15 11 10 14 -6 15 -5 6 5 -8 8 -9 18
-2 31 12 22 27 23 51 2 17 -16 17 -18 0 -31 -9 -8 -12 -12 -5 -9 8 4 10 -3 6
-25 -3 -22 1 -35 14 -46 10 -8 11 -11 3 -7 -12 5 -12 4 -3 -6 6 -7 9 -20 5
-28 -5 -14 -4 -15 10 -2 9 8 14 18 12 22 -3 4 4 5 16 3 11 -2 22 0 24 4 7 10
47 8 66 -4 13 -8 13 -7 1 8 -7 9 -17 14 -22 11 -5 -3 -9 0 -9 5 0 6 7 11 16
11 8 0 13 4 9 9 -3 5 0 13 6 16 6 4 15 17 20 29 l10 21 -5 -22 c-4 -23 26 -78
37 -66 4 3 7 1 7 -4 0 -6 -6 -13 -12 -16 -7 -3 -3 -4 9 -4 12 1 20 4 18 8 -3
3 5 15 17 25 12 11 18 14 15 8 -4 -7 0 -15 9 -18 10 -4 13 -2 8 6 -4 7 -3 8 4
4 18 -11 14 -22 -10 -34 l-23 -10 22 1 c12 1 25 7 28 15 9 23 24 3 20 -27 -2
-19 1 -28 11 -28 10 0 11 4 2 14 -15 19 5 41 24 26 7 -6 21 -9 31 -8 9 2 15 0
12 -5 -11 -17 30 -21 42 -4 12 16 17 12 14 -8 0 -5 3 -8 9 -8 5 0 10 6 10 13
0 7 9 13 20 14 22 2 27 -12 8 -23 -7 -5 -8 -3 -3 6 5 8 4 11 -2 7 -6 -4 -9
-18 -8 -32 3 -25 -2 -28 -40 -26 l-20 1 20 -9 c11 -5 25 -6 30 -3 6 3 4 -2 -3
-10 -8 -9 -21 -14 -30 -11 -14 4 -14 3 -3 -5 17 -12 6 -46 -11 -36 -8 5 -7 0
2 -11 14 -17 13 -18 -2 -12 -12 4 -15 2 -11 -8 3 -8 10 -12 17 -9 6 3 -4 -7
-21 -23 -18 -15 -45 -53 -60 -83 -15 -30 -31 -58 -36 -61 -5 -3 -8 -10 -8 -15
2 -19 -11 -44 -20 -39 -5 3 -6 0 -3 -8 3 -8 -2 -22 -11 -31 -9 -9 -14 -16 -11
-16 7 0 -86 -183 -97 -191 -5 -3 -8 -9 -7 -13 1 -4 -11 -32 -26 -62 l-28 -55
-89 178 c-49 98 -89 184 -90 191 0 6 -3 12 -6 12 -12 0 -32 60 -25 71 4 8 3 9
-4 5 -6 -4 -18 6 -27 23 -18 36 -20 55 -3 45 7 -4 8 -3 4 5 -4 6 -11 9 -16 6
-4 -3 -18 11 -30 30 -12 19 -24 35 -26 35 -3 0 -2 -4 1 -10 3 -6 -1 -7 -9 -4
-9 3 -13 10 -10 15 3 6 0 16 -6 24 -7 8 -9 15 -5 15 4 0 1 8 -6 17 -10 11 -10
14 -1 9 17 -10 15 2 -3 20 -8 8 -11 22 -8 31 5 12 3 14 -8 8 -11 -7 -12 -6 -2
7 7 8 11 17 8 20 -3 2 2 5 10 5 8 0 15 -5 15 -10 0 -6 3 -7 6 -4 4 4 2 13 -5
21 -9 11 -7 18 14 34 14 12 25 23 25 27 -1 3 1 11 3 18 4 9 8 8 16 -3 12 -17
14 -10 5 14 -3 9 -11 13 -17 9 -6 -4 -1 8 12 25 12 18 20 32 16 32 -3 0 -3 5
0 10 7 12 25 13 25 2z m-297 -25 c-4 -6 0 -8 10 -4 11 4 17 1 17 -8 0 -25 -4
-30 -18 -27 -8 2 -12 -1 -8 -6 3 -5 -1 -9 -9 -9 -21 0 -18 27 3 28 13 0 14 2
2 6 -29 11 -42 26 -29 34 16 10 41 0 32 -14z m227 13 c0 -5 -5 -10 -11 -10 -5
0 -7 5 -4 10 3 6 8 10 11 10 2 0 4 -4 4 -10z m325 -23 c6 -5 3 -7 -7 -3 -17 5
-35 -9 -21 -17 5 -2 3 -2 -4 -1 -7 2 -15 -1 -18 -6 -4 -6 0 -10 7 -10 8 0 5
-5 -6 -11 -14 -9 -21 -8 -32 5 -8 9 -9 11 -2 6 14 -12 29 -13 26 -2 -4 10 36
61 42 54 3 -4 10 -11 15 -15z m545 10 c0 -2 -10 -12 -22 -23 l-23 -19 19 23
c18 21 26 27 26 19z m-1129 -20 c-1 -12 -15 -9 -19 4 -3 6 1 10 8 8 6 -3 11
-8 11 -12z m764 3 c3 -6 -1 -7 -9 -4 -18 7 -21 14 -7 14 6 0 13 -4 16 -10z
m190 -70 c-3 -5 -12 -10 -18 -10 -7 0 -6 4 3 10 19 12 23 12 15 0z m-70 -50
c3 -5 1 -10 -4 -10 -6 0 -11 5 -11 10 0 6 2 10 4 10 3 0 8 -4 11 -10z m-893
-82 c-7 -7 -12 -8 -12 -2 0 6 3 14 7 17 3 4 9 5 12 2 2 -3 -1 -11 -7 -17z"/>
<path d="M2190 3220 c0 -5 5 -10 11 -10 5 0 7 5 4 10 -3 6 -8 10 -11 10 -2 0
-4 -4 -4 -10z"/>
<path d="M2140 3206 c0 -2 8 -10 18 -17 15 -13 16 -12 3 4 -13 16 -21 21 -21
13z"/>
<path d="M2234 3170 c0 -13 4 -16 10 -10 7 7 7 13 0 20 -6 6 -10 3 -10 -10z"/>
<path d="M2090 3126 c0 -2 7 -7 16 -10 8 -3 12 -2 9 4 -6 10 -25 14 -25 6z"/>
<path d="M2099 3088 c-5 -18 -6 -38 -1 -34 7 8 12 36 6 36 -2 0 -4 -1 -5 -2z"/>
<path d="M2216 3082 c-3 -5 1 -9 9 -9 8 0 12 4 9 9 -3 4 -7 8 -9 8 -2 0 -6 -4
-9 -8z"/>
<path d="M1990 3046 c0 -2 7 -7 16 -10 8 -3 12 -2 9 4 -6 10 -25 14 -25 6z"/>
<path d="M1956 3018 c3 -5 10 -6 15 -3 13 9 11 12 -6 12 -8 0 -12 -4 -9 -9z"/>
<path d="M1910 2956 c0 -2 7 -9 15 -16 13 -11 14 -10 9 4 -5 14 -24 23 -24 12z"/>
<path d="M1955 2940 c3 -5 8 -10 11 -10 2 0 4 5 4 10 0 6 -5 10 -11 10 -5 0
-7 -4 -4 -10z"/>
<path d="M1483 2612 c10 -10 14 -22 10 -27 -5 -4 -2 -5 5 -1 11 6 10 12 -4 27
-9 10 -19 19 -22 19 -3 0 2 -8 11 -18z"/>
<path d="M1275 2560 c3 -5 8 -10 11 -10 2 0 4 5 4 10 0 6 -5 10 -11 10 -5 0
-7 -4 -4 -10z"/>
<path d="M1495 2560 c-3 -6 1 -7 9 -4 18 7 21 14 7 14 -6 0 -13 -4 -16 -10z"/>
<path d="M1530 2339 c0 -5 5 -7 10 -4 6 3 10 8 10 11 0 2 -4 4 -10 4 -5 0 -10
-5 -10 -11z"/>
<path d="M1494 2316 c1 -8 5 -18 8 -22 4 -3 5 1 4 10 -1 8 -5 18 -8 22 -4 3
-5 -1 -4 -10z"/>
<path d="M1327 2288 c9 -10 19 -15 22 -12 3 4 0 9 -7 11 -6 3 -10 8 -8 12 3 4
-1 8 -9 8 -13 0 -12 -4 2 -19z"/>
<path d="M1515 2271 c-3 -6 -14 -8 -25 -6 -11 2 -20 0 -20 -6 0 -12 37 -6 52
9 7 7 9 12 6 12 -4 0 -9 -4 -13 -9z"/>
<path d="M1850 2471 c0 -5 5 -13 10 -16 6 -3 10 -2 10 4 0 5 -4 13 -10 16 -5
3 -10 2 -10 -4z"/>
<path d="M1830 2461 c0 -6 4 -13 10 -16 6 -3 7 1 4 9 -7 18 -14 21 -14 7z"/>
<path d="M2030 2369 c0 -5 5 -7 10 -4 6 3 10 8 10 11 0 2 -4 4 -10 4 -5 0 -10
-5 -10 -11z"/>
<path d="M1678 2343 c7 -3 16 -2 19 1 4 3 -2 6 -13 5 -11 0 -14 -3 -6 -6z"/>
<path d="M1790 2338 c0 -4 4 -8 9 -8 6 0 12 4 15 8 3 5 -1 9 -9 9 -8 0 -15 -4
-15 -9z"/>
<path d="M1967 2330 c3 -11 9 -22 13 -25 5 -3 6 4 3 15 -3 11 -9 22 -13 25 -5
3 -6 -4 -3 -15z"/>
<path d="M1933 2325 c0 -8 4 -15 9 -15 4 0 8 4 8 9 0 6 -4 12 -8 15 -5 3 -9
-1 -9 -9z"/>
<path d="M2053 2325 c0 -8 3 -13 5 -10 3 3 10 0 17 -5 8 -7 12 -5 12 5 0 8 -3
13 -5 10 -3 -3 -10 0 -17 5 -8 7 -12 5 -12 -5z"/>
<path d="M2226 2317 c3 -10 9 -15 12 -12 3 3 0 11 -7 18 -10 9 -11 8 -5 -6z"/>
<path d="M1719 2293 c-13 -16 -12 -17 4 -4 9 7 17 15 17 17 0 8 -8 3 -21 -13z"/>
<path d="M2105 2300 c-3 -6 1 -7 9 -4 18 7 21 14 7 14 -6 0 -13 -4 -16 -10z"/>
<path d="M1893 2275 c0 -8 4 -12 9 -9 4 3 8 9 8 15 0 5 -4 9 -8 9 -5 0 -9 -7
-9 -15z"/>
<path d="M1956 2278 c3 -5 10 -6 15 -3 13 9 11 12 -6 12 -8 0 -12 -4 -9 -9z"/>
<path d="M2073 2275 c0 -8 4 -12 9 -9 5 3 6 10 3 15 -9 13 -12 11 -12 -6z"/>
<path d="M1695 2260 c-3 -5 -1 -10 4 -10 6 0 11 5 11 10 0 6 -2 10 -4 10 -3 0
-8 -4 -11 -10z"/>
<path d="M2086 2238 c3 -5 10 -6 15 -3 13 9 11 12 -6 12 -8 0 -12 -4 -9 -9z"/>
<path d="M1993 2225 c0 -8 4 -12 9 -9 5 3 6 10 3 15 -9 13 -12 11 -12 -6z"/>
<path d="M1695 2220 c-3 -5 -1 -10 4 -10 6 0 11 5 11 10 0 6 -2 10 -4 10 -3 0
-8 -4 -11 -10z"/>
<path d="M2126 2198 c3 -5 10 -6 15 -3 13 9 11 12 -6 12 -8 0 -12 -4 -9 -9z"/>
<path d="M1695 2180 c-3 -5 -1 -10 4 -10 6 0 11 5 11 10 0 6 -2 10 -4 10 -3 0
-8 -4 -11 -10z"/>
<path d="M2250 2180 c0 -5 5 -10 11 -10 5 0 7 5 4 10 -3 6 -8 10 -11 10 -2 0
-4 -4 -4 -10z"/>
<path d="M1870 2156 c7 -7 13 -7 20 0 6 6 3 10 -10 10 -13 0 -16 -4 -10 -10z"/>
<path d="M2200 2160 c-9 -6 -10 -10 -3 -10 6 0 15 5 18 10 8 12 4 12 -15 0z"/>
<path d="M2255 2140 c3 -5 8 -10 11 -10 2 0 4 5 4 10 0 6 -5 10 -11 10 -5 0
-7 -4 -4 -10z"/>
<path d="M1870 2119 c0 -5 5 -7 10 -4 6 3 10 8 10 11 0 2 -4 4 -10 4 -5 0 -10
-5 -10 -11z"/>
<path d="M2150 2119 c0 -5 5 -7 10 -4 6 3 10 8 10 11 0 2 -4 4 -10 4 -5 0 -10
-5 -10 -11z"/>
<path d="M2195 2120 c-3 -5 -1 -10 4 -10 6 0 11 5 11 10 0 6 -2 10 -4 10 -3 0
-8 -4 -11 -10z"/>
<path d="M1905 2080 c-3 -6 1 -7 9 -4 18 7 21 14 7 14 -6 0 -13 -4 -16 -10z"/>
<path d="M1815 2060 c-3 -5 -1 -10 4 -10 6 0 11 5 11 10 0 6 -2 10 -4 10 -3 0
-8 -4 -11 -10z"/>
<path d="M1859 2068 c-5 -18 -6 -38 -1 -34 7 8 12 36 6 36 -2 0 -4 -1 -5 -2z"/>
<path d="M2154 2062 c4 -3 14 -7 22 -8 9 -1 13 0 10 4 -4 3 -14 7 -22 8 -9 1
-13 0 -10 -4z"/>
<path d="M2216 2058 c3 -5 10 -6 15 -3 13 9 11 12 -6 12 -8 0 -12 -4 -9 -9z"/>
<path d="M2079 2058 c-5 -18 -6 -38 -1 -34 7 8 12 36 6 36 -2 0 -4 -1 -5 -2z"/>
<path d="M1977 2035 c-4 -8 -3 -16 1 -19 4 -3 9 4 9 15 2 23 -3 25 -10 4z"/>
<path d="M2013 2015 c0 -8 4 -12 9 -9 5 3 6 10 3 15 -9 13 -12 11 -12 -6z"/>
<path d="M2133 2015 c0 -8 4 -12 9 -9 5 3 6 10 3 15 -9 13 -12 11 -12 -6z"/>
<path d="M1890 2000 c0 -5 5 -10 11 -10 5 0 7 5 4 10 -3 6 -8 10 -11 10 -2 0
-4 -4 -4 -10z"/>
<path d="M2046 1978 c3 -5 10 -6 15 -3 13 9 11 12 -6 12 -8 0 -12 -4 -9 -9z"/>
<path d="M2110 1981 c0 -6 4 -13 10 -16 6 -3 7 1 4 9 -7 18 -14 21 -14 7z"/>
<path d="M1955 1931 c-3 -5 -2 -12 3 -15 5 -3 9 1 9 9 0 17 -3 19 -12 6z"/>
<path d="M2294 3246 c1 -8 5 -18 8 -22 4 -3 5 1 4 10 -1 8 -5 18 -8 22 -4 3
-5 -1 -4 -10z"/>
<path d="M2033 3235 c0 -8 4 -12 9 -9 5 3 6 10 3 15 -9 13 -12 11 -12 -6z"/>
<path d="M1951 3167 c-13 -21 -12 -21 5 -5 10 10 16 20 13 22 -3 3 -11 -5 -18
-17z"/>
<path d="M1917 3133 c-4 -3 -7 -11 -7 -17 0 -6 5 -5 12 2 6 6 9 14 7 17 -3 3
-9 2 -12 -2z"/>
<path d="M2385 3080 c-3 -6 1 -7 9 -4 18 7 21 14 7 14 -6 0 -13 -4 -16 -10z"/>
<path d="M1700 3030 c6 -11 12 -20 14 -20 2 0 2 9 -1 20 -3 11 -9 20 -15 20
-5 0 -4 -9 2 -20z"/>
<path d="M1735 3021 c-3 -5 -2 -12 3 -15 5 -3 9 1 9 9 0 17 -3 19 -12 6z"/>
<path d="M1794 3022 c4 -3 14 -7 22 -8 9 -1 13 0 10 4 -4 3 -14 7 -22 8 -9 1
-13 0 -10 -4z"/>
<path d="M1484 2998 c19 -11 19 -11 1 -24 -10 -8 -14 -14 -9 -14 6 0 15 5 22
12 13 13 -1 38 -22 38 -6 0 -2 -6 8 -12z"/>
<path d="M2270 2999 c0 -5 5 -7 10 -4 6 3 10 8 10 11 0 2 -4 4 -10 4 -5 0 -10
-5 -10 -11z"/>
<path d="M2241 2976 c-9 -11 -9 -16 1 -22 7 -4 10 -4 6 1 -4 4 -3 14 3 22 6 7
9 13 6 13 -2 0 -10 -6 -16 -14z"/>
<path d="M1676 2938 c3 -5 10 -6 15 -3 13 9 11 12 -6 12 -8 0 -12 -4 -9 -9z"/>
<path d="M2320 2940 c-12 -7 -10 -9 7 -7 12 0 19 5 17 9 -6 10 -6 10 -24 -2z"/>
<path d="M1655 2900 c-3 -5 -1 -10 4 -10 6 0 11 5 11 10 0 6 -2 10 -4 10 -3 0
-8 -4 -11 -10z"/>
<path d="M2456 2902 c-3 -5 1 -9 9 -9 8 0 12 4 9 9 -3 4 -7 8 -9 8 -2 0 -6 -4
-9 -8z"/>
<path d="M2121 2886 c-9 -11 -9 -16 1 -22 7 -4 10 -4 6 1 -4 4 -3 14 3 22 6 7
9 13 6 13 -2 0 -10 -6 -16 -14z"/>
<path d="M2279 2873 c-13 -16 -12 -17 4 -4 9 7 17 15 17 17 0 8 -8 3 -21 -13z"/>
<path d="M2390 2884 c0 -20 27 -37 36 -23 4 7 3 9 -4 5 -6 -3 -15 2 -21 11 -6
10 -11 13 -11 7z"/>
<path d="M1574 2862 c3 -5 0 -13 -6 -15 -9 -4 -10 -6 -1 -6 17 -1 25 16 12 25
-7 4 -9 3 -5 -4z"/>
<path d="M1915 2860 c-3 -5 -1 -10 4 -10 6 0 11 5 11 10 0 6 -2 10 -4 10 -3 0
-8 -4 -11 -10z"/>
<path d="M2145 2860 c-3 -6 1 -7 9 -4 18 7 21 14 7 14 -6 0 -13 -4 -16 -10z"/>
<path d="M1967 2839 c7 -7 15 -10 18 -7 3 3 -2 9 -12 12 -14 6 -15 5 -6 -5z"/>
<path d="M2353 2835 c0 -8 4 -12 9 -9 5 3 6 10 3 15 -9 13 -12 11 -12 -6z"/>
<path d="M2155 2831 c-3 -5 -2 -12 3 -15 5 -3 9 1 9 9 0 17 -3 19 -12 6z"/>
<path d="M2002 2818 c-15 -15 -15 -28 0 -28 6 0 8 3 5 7 -4 3 -2 12 4 20 14
16 7 17 -9 1z"/>
<path d="M2035 2820 c-3 -5 -1 -10 4 -10 6 0 11 5 11 10 0 6 -2 10 -4 10 -3 0
-8 -4 -11 -10z"/>
<path d="M1714 2806 c1 -8 5 -18 8 -22 4 -3 5 1 4 10 -1 8 -5 18 -8 22 -4 3
-5 -1 -4 -10z"/>
<path d="M1195 2800 c3 -5 8 -10 11 -10 2 0 4 5 4 10 0 6 -5 10 -11 10 -5 0
-7 -4 -4 -10z"/>
<path d="M1409 2797 c6 -8 7 -18 3 -22 -4 -5 -1 -5 6 -1 10 6 10 11 1 22 -6 8
-14 14 -16 14 -3 0 0 -6 6 -13z"/>
<path d="M1610 2790 c6 -11 13 -20 16 -20 2 0 0 9 -6 20 -6 11 -13 20 -16 20
-2 0 0 -9 6 -20z"/>
<path d="M1679 2793 c-13 -16 -12 -17 4 -4 9 7 17 15 17 17 0 8 -8 3 -21 -13z"/>
<path d="M1745 2800 c-3 -6 1 -7 9 -4 18 7 21 14 7 14 -6 0 -13 -4 -16 -10z"/>
<path d="M2310 2800 c0 -5 5 -10 11 -10 5 0 7 5 4 10 -3 6 -8 10 -11 10 -2 0
-4 -4 -4 -10z"/>
<path d="M2470 2799 c0 -5 5 -7 10 -4 6 3 10 8 10 11 0 2 -4 4 -10 4 -5 0 -10
-5 -10 -11z"/>
<path d="M1630 2796 c0 -2 8 -10 18 -17 15 -13 16 -12 3 4 -13 16 -21 21 -21
13z"/>
<path d="M1906 2758 c3 -5 10 -6 15 -3 13 9 11 12 -6 12 -8 0 -12 -4 -9 -9z"/>
<path d="M1976 2761 c9 -9 34 -9 34 -1 0 5 -9 8 -20 7 -10 -1 -17 -3 -14 -6z"/>
<path d="M2116 2758 c3 -5 10 -6 15 -3 13 9 11 12 -6 12 -8 0 -12 -4 -9 -9z"/>
<path d="M2170 2759 c0 -5 5 -7 10 -4 6 3 10 8 10 11 0 2 -4 4 -10 4 -5 0 -10
-5 -10 -11z"/>
<path d="M2306 2762 c-2 -4 4 -8 14 -8 10 0 16 4 14 8 -3 4 -9 8 -14 8 -5 0
-11 -4 -14 -8z"/>
<path d="M1573 2735 c0 -8 4 -12 9 -9 5 3 6 10 3 15 -9 13 -12 11 -12 -6z"/>
<path d="M1656 2733 c-6 -14 -5 -15 5 -6 7 7 10 15 7 18 -3 3 -9 -2 -12 -12z"/>
<path d="M2235 2743 c3 -3 0 -11 -5 -18 -7 -8 -5 -12 4 -12 14 0 16 22 3 32
-4 3 -5 2 -2 -2z"/>
<path d="M2494 2736 c1 -8 5 -18 8 -22 4 -3 5 1 4 10 -1 8 -5 18 -8 22 -4 3
-5 -1 -4 -10z"/>
<path d="M1720 2720 c-9 -6 -10 -10 -3 -10 6 0 15 5 18 10 8 12 4 12 -15 0z"/>
<path d="M1875 2710 c10 -11 20 -20 23 -20 3 0 -3 9 -13 20 -10 11 -20 20 -23
20 -3 0 3 -9 13 -20z"/>
<path d="M2006 2718 c3 -4 9 -8 15 -8 5 0 9 4 9 8 0 5 -7 9 -15 9 -8 0 -12 -4
-9 -9z"/>
<path d="M2125 2720 c-3 -6 1 -7 9 -4 18 7 21 14 7 14 -6 0 -13 -4 -16 -10z"/>
<path d="M2455 2700 c-3 -5 -1 -10 4 -10 6 0 11 5 11 10 0 6 -2 10 -4 10 -3 0
-8 -4 -11 -10z"/>
<path d="M2090 2696 c0 -2 8 -10 18 -17 15 -13 16 -12 3 4 -13 16 -21 21 -21
13z"/>
<path d="M2213 2685 c0 -8 4 -15 9 -15 4 0 8 4 8 9 0 6 -4 12 -8 15 -5 3 -9
-1 -9 -9z"/>
<path d="M1590 2682 c0 -5 7 -9 15 -9 8 0 12 4 9 9 -3 4 -9 8 -15 8 -5 0 -9
-4 -9 -8z"/>
<path d="M1990 2686 c0 -2 7 -7 16 -10 8 -3 12 -2 9 4 -6 10 -25 14 -25 6z"/>
<path d="M2030 2680 c0 -5 5 -10 11 -10 5 0 7 5 4 10 -3 6 -8 10 -11 10 -2 0
-4 -4 -4 -10z"/>
<path d="M2340 2686 c0 -2 8 -10 18 -17 15 -13 16 -12 3 4 -13 16 -21 21 -21
13z"/>
<path d="M1950 2676 c0 -2 8 -10 18 -17 15 -13 16 -12 3 4 -13 16 -21 21 -21
13z"/>
<path d="M1873 2647 c-1 -11 -1 -18 0 -16 2 2 8 11 15 20 9 12 9 16 -1 16 -7
0 -14 -9 -14 -20z"/>
<path d="M2154 2645 c0 -13 3 -22 7 -19 8 4 6 30 -2 38 -3 3 -5 -5 -5 -19z"/>
<path d="M2515 2660 c-3 -5 -1 -10 4 -10 6 0 11 5 11 10 0 6 -2 10 -4 10 -3 0
-8 -4 -11 -10z"/>
<path d="M1597 2653 c-10 -9 -9 -23 1 -23 5 0 9 7 9 15 0 17 -1 18 -10 8z"/>
<path d="M2010 2646 c0 -2 7 -7 16 -10 8 -3 12 -2 9 4 -6 10 -25 14 -25 6z"/>
<path d="M2276 2633 c-6 -14 -5 -15 5 -6 7 7 10 15 7 18 -3 3 -9 -2 -12 -12z"/>
<path d="M2110 2636 c0 -2 8 -10 18 -17 15 -13 16 -12 3 4 -13 16 -21 21 -21
13z"/>
<path d="M1953 2609 c-2 -23 3 -25 10 -4 4 8 3 16 -1 19 -4 3 -9 -4 -9 -15z"/>
<path d="M2530 2620 c0 -5 5 -10 11 -10 5 0 7 5 4 10 -3 6 -8 10 -11 10 -2 0
-4 -4 -4 -10z"/>
<path d="M2046 2605 c-11 -8 -15 -15 -9 -15 6 0 16 7 23 15 16 19 11 19 -14 0z"/>
<path d="M1590 2606 c0 -2 7 -7 16 -10 8 -3 12 -2 9 4 -6 10 -25 14 -25 6z"/>
<path d="M1795 2600 c3 -5 8 -10 11 -10 2 0 4 5 4 10 0 6 -5 10 -11 10 -5 0
-7 -4 -4 -10z"/>
<path d="M1570 2580 c13 -24 17 -25 17 -5 0 8 -6 16 -14 19 -11 4 -11 1 -3
-14z"/>
<path d="M2075 2580 c5 -27 23 -50 39 -49 7 0 6 2 -2 6 -6 2 -9 10 -6 15 4 7
2 8 -4 4 -7 -4 -13 -2 -13 3 -3 26 -4 30 -11 37 -4 3 -5 -3 -3 -16z"/>
<path d="M2195 2589 c-4 -6 -5 -12 -2 -15 2 -3 7 2 10 11 7 17 1 20 -8 4z"/>
<path d="M2520 2596 c0 -2 7 -7 16 -10 8 -3 12 -2 9 4 -6 10 -25 14 -25 6z"/>
<path d="M1916 2573 c-6 -14 -5 -15 5 -6 7 7 10 15 7 18 -3 3 -9 -2 -12 -12z"/>
<path d="M2610 2585 c0 -5 5 -17 10 -25 5 -8 10 -10 10 -5 0 6 -5 17 -10 25
-5 8 -10 11 -10 5z"/>
<path d="M2013 2516 c3 -7 0 -20 -6 -27 -10 -11 -9 -11 5 0 15 11 15 41 1 41
-3 0 -3 -6 0 -14z"/>
<path d="M2395 2521 c-3 -5 -2 -12 3 -15 5 -3 9 1 9 9 0 17 -3 19 -12 6z"/>
<path d="M2113 2485 c0 -8 4 -12 9 -9 5 3 6 10 3 15 -9 13 -12 11 -12 -6z"/>
<path d="M1616 2482 c-3 -5 1 -9 9 -9 8 0 12 4 9 9 -3 4 -7 8 -9 8 -2 0 -6 -4
-9 -8z"/>
<path d="M1593 2450 c-1 -11 2 -22 6 -24 4 -3 7 4 6 14 -2 27 -10 33 -12 10z"/>
<path d="M2310 2459 c0 -5 5 -7 10 -4 6 3 10 8 10 11 0 2 -4 4 -10 4 -5 0 -10
-5 -10 -11z"/>
<path d="M2269 2410 c-13 -10 -20 -19 -16 -20 4 0 17 9 29 20 28 26 17 26 -13
0z"/>
<path d="M1596 2398 c3 -4 9 -8 15 -8 5 0 9 4 9 8 0 5 -7 9 -15 9 -8 0 -12 -4
-9 -9z"/>
<path d="M1193 2367 c0 -8 6 -14 14 -14 9 0 10 4 2 14 -6 7 -12 13 -14 13 -1
0 -2 -6 -2 -13z"/>
<path d="M2501 2316 c-9 -11 -9 -16 1 -22 7 -4 10 -4 6 1 -4 4 -3 14 3 22 6 7
9 13 6 13 -2 0 -10 -6 -16 -14z"/>
<path d="M2547 2319 c7 -7 15 -10 18 -7 3 3 -2 9 -12 12 -14 6 -15 5 -6 -5z"/>
<path d="M2550 2256 c0 -2 8 -10 18 -17 15 -13 16 -12 3 4 -13 16 -21 21 -21
13z"/>
<path d="M2410 2219 c0 -5 5 -7 10 -4 6 3 10 8 10 11 0 2 -4 4 -10 4 -5 0 -10
-5 -10 -11z"/>
<path d="M2456 2218 c3 -5 10 -6 15 -3 13 9 11 12 -6 12 -8 0 -12 -4 -9 -9z"/>
<path d="M2415 2191 c-3 -5 -2 -12 3 -15 5 -3 9 1 9 9 0 17 -3 19 -12 6z"/>
<path d="M1195 2180 c3 -5 8 -10 11 -10 2 0 4 5 4 10 0 6 -5 10 -11 10 -5 0
-7 -4 -4 -10z"/>
<path d="M1575 2180 c-4 -6 1 -7 11 -3 13 5 15 3 9 -7 -5 -9 -4 -11 4 -6 6 4
9 12 6 17 -8 12 -22 12 -30 -1z"/>
<path d="M2720 2180 c-9 -6 -10 -10 -3 -10 6 0 15 5 18 10 8 12 4 12 -15 0z"/>
</g>
</svg>
